<?xml version="1.0" encoding="iso-8859-1"?>
<!-- Uploaded to: SVG Repo, www.svgrepo.com, Generator: SVG Repo Mixer Tools -->
<svg fill="#f6783a" height="800px" width="800px" version="1.1" id="Layer_1" xmlns="http://www.w3.org/2000/svg" xmlns:xlink="http://www.w3.org/1999/xlink"
	 viewBox="0 0 512 512" xml:space="preserve">
<g>
	<g>
		<path d="M503.983,333.495h-17.637v-9.086c0-4.427-3.588-8.017-8.017-8.017h-9.086V179.04C469.244,80.317,388.927,0,290.205,0
			h-68.409c-98.722,0-179.04,80.317-179.04,179.04v137.353H33.67c-4.428,0-8.017,3.589-8.017,8.017v9.086H8.017
			c-4.428,0-8.017,3.589-8.017,8.017v68.409c0,4.427,3.588,8.017,8.017,8.017h17.637v9.086c0,4.427,3.588,8.017,8.017,8.017h34.205
			c4.428,0,8.017-3.589,8.017-8.017V324.409c0-4.427-3.588-8.017-8.017-8.017h-9.086V179.04
			c0-89.882,73.124-163.006,163.006-163.006h68.409c89.882,0,163.006,73.124,163.006,163.006v137.353h-9.086
			c-4.428,0-8.017,3.589-8.017,8.017v102.614c0,4.427,3.588,8.017,8.017,8.017h26.188v26.188c0,5.01-4.076,9.086-9.086,9.086
			h-34.205c-5.01,0-9.086-4.076-9.086-9.086V144.835c0-13.851-11.268-25.119-25.119-25.119h-17.102c-5.01,0-9.086-4.076-9.086-9.086
			V84.977c0-13.851-11.268-25.119-25.119-25.119h-25.653c-13.851,0-25.119,11.268-25.119,25.119v17.637h-0.534
			c-9.136,0-16.568,7.432-16.568,16.568v34.739h-26.722v-26.188c0-4.427-3.588-8.017-8.017-8.017h-51.307
			c-4.428,0-8.017,3.589-8.017,8.017v26.188h-43.29c-4.428,0-8.017,3.589-8.017,8.017v26.188h-26.188
			c-4.428,0-8.017,3.589-8.017,8.017v68.409c0,4.427,3.588,8.017,8.017,8.017h26.188v231.415c0,4.427,3.588,8.017,8.017,8.017
			h171.023c4.428,0,8.017-3.589,8.017-8.017c0-4.427-3.588-8.017-8.017-8.017H195.608v-265.62c0-4.427-3.588-8.017-8.017-8.017
			s-8.017,3.589-8.017,8.017v265.62h-35.273V169.954h35.273v26.188c0,4.427,3.588,8.017,8.017,8.017s8.017-3.589,8.017-8.017
			v-26.188h172.092v326.013h-26.188c-4.428,0-8.017,3.589-8.017,8.017c0,4.427,3.588,8.017,8.017,8.017h34.205
			c4.428,0,8.017-3.589,8.017-8.017V161.937c0-4.427-3.588-8.017-8.017-8.017h-60.392v-34.739c0-6.228-3.458-11.659-8.551-14.489
			V84.977c0-5.01,4.076-9.086,9.086-9.086h25.653c5.01,0,9.086,4.076,9.086,9.086v25.653c0,13.851,11.268,25.119,25.119,25.119
			h17.102c5.01,0,9.086,4.076,9.086,9.086v316.392c0,13.851,11.268,25.119,25.119,25.119h34.205
			c13.851,0,25.119-11.268,25.119-25.119v-34.205v-9.086h17.637c4.428,0,8.017-3.589,8.017-8.017v-68.409
			C512,337.084,508.412,333.495,503.983,333.495z M25.653,401.904h-9.62v-52.376h9.62V401.904z M59.858,332.426v86.58H41.687v-9.086
			v-68.409v-9.086H59.858z M128.267,256.534h-18.171v-52.376h18.171V256.534z M230.881,153.921h-35.273v-18.171h35.273V153.921z
			 M299.29,153.921h-9.62v-34.739c0-0.295,0.24-0.534,0.534-0.534h8.551c0.294,0,0.534,0.239,0.534,0.534V153.921z M470.313,419.006
			h-18.171v-86.58h18.171V419.006z M495.967,401.904h-9.62v-52.376h9.62V401.904z"/>
	</g>
</g>
<g>
	<g>
		<path d="M119.182,316.393c-4.428,0-8.017,3.589-8.017,8.017v34.205c0,4.427,3.588,8.017,8.017,8.017s8.017-3.589,8.017-8.017
			v-34.205C127.198,319.982,123.61,316.393,119.182,316.393z"/>
	</g>
</g>
<g>
	<g>
		<path d="M119.182,384.802c-4.428,0-8.017,3.589-8.017,8.017v34.205c0,4.427,3.588,8.017,8.017,8.017s8.017-3.589,8.017-8.017
			v-34.205C127.198,388.391,123.61,384.802,119.182,384.802z"/>
	</g>
</g>
<g>
	<g>
		<path d="M332.96,205.228H230.347c-4.428,0-8.017,3.589-8.017,8.017s3.588,8.017,8.017,8.017H332.96
			c4.428,0,8.017-3.589,8.017-8.017S337.389,205.228,332.96,205.228z"/>
	</g>
</g>
<g>
	<g>
		<path d="M332.96,444.66H230.347c-4.428,0-8.017,3.589-8.017,8.017c0,4.427,3.588,8.017,8.017,8.017H332.96
			c4.428,0,8.017-3.589,8.017-8.017C340.977,448.249,337.389,444.66,332.96,444.66z"/>
	</g>
</g>
<g>
	<g>
		<path d="M332.96,239.432H230.347c-4.428,0-8.017,3.589-8.017,8.017v171.023c0,4.427,3.588,8.017,8.017,8.017H332.96
			c4.428,0,8.017-3.589,8.017-8.017V247.449C340.977,243.021,337.389,239.432,332.96,239.432z M324.944,410.455h-86.58v-154.99
			h86.58V410.455z"/>
	</g>
</g>
<g>
	<g>
		<path d="M304.034,335.478c-3.331-2.915-8.396-2.577-11.312,0.755l-29.929,34.205c-2.687,3.072-2.595,7.816,0.205,10.782
			c3.2,3.391,8.793,3.284,11.862-0.223l29.929-34.205C307.705,343.458,307.367,338.394,304.034,335.478z"/>
	</g>
</g>
<g>
	<g>
		<path d="M304.081,284.213c-3.309-2.942-8.377-2.643-11.318,0.666l-34.205,38.48c-2.67,3.004-2.668,7.678,0.017,10.673
			c3.153,3.512,8.829,3.509,11.966-0.021l34.205-38.48C307.688,292.222,307.39,287.155,304.081,284.213z"/>
	</g>
</g>
</svg>